<?xml version="1.0" standalone="no"?>
<!DOCTYPE svg PUBLIC "-//W3C//DTD SVG 20010904//EN"
 "http://www.w3.org/TR/2001/REC-SVG-20010904/DTD/svg10.dtd">
<svg version="1.0" xmlns="http://www.w3.org/2000/svg"
 width="260.000000pt" height="260.000000pt" viewBox="0 0 260.000000 260.000000"
 preserveAspectRatio="xMidYMid meet">
<metadata>
Created by potrace 1.11, written by Peter Selinger 2001-2013
</metadata>
<g transform="translate(0.000000,260.000000) scale(0.100000,-0.100000)"
fill="#000000" stroke="none">
<path d="M1847 1338 c-114 -299 -207 -546 -207 -550 0 -5 63 -8 139 -8 l140 0
20 55 c12 31 21 60 21 65 0 6 64 10 159 10 l159 0 23 -65 23 -65 139 0 139 0
-5 23 c-4 12 -96 258 -206 547 l-199 525 -69 3 -68 3 -208 -543z m324 -111
c11 -38 23 -76 26 -83 4 -11 -11 -14 -71 -14 -42 0 -76 4 -76 9 0 11 59 250
67 271 3 8 12 -14 19 -49 8 -35 23 -95 35 -134z"/>
<path d="M60 1325 l0 -545 135 0 135 0 2 240 3 240 83 -110 c50 -68 89 -110
100 -110 10 1 49 45 97 110 44 60 83 109 88 110 4 0 7 -108 7 -240 l0 -240
130 0 130 0 0 528 c0 299 4 521 9 512 5 -8 94 -242 199 -520 105 -278 194
-513 198 -523 5 -15 16 -17 61 -15 l55 3 179 480 c99 264 191 510 204 548 l25
67 -148 0 -148 0 -57 -177 c-52 -163 -84 -283 -102 -388 -7 -37 -9 -32 -31 74
-13 63 -52 199 -86 303 l-63 188 -115 0 c-63 0 -151 3 -195 5 l-80 6 -175
-230 c-96 -127 -178 -230 -182 -231 -4 0 -87 104 -185 230 l-178 230 -47 0
-48 0 0 -545z"/>
</g>
</svg>
