<?xml version="1.0" standalone="no"?>
<!DOCTYPE svg PUBLIC "-//W3C//DTD SVG 20010904//EN"
 "http://www.w3.org/TR/2001/REC-SVG-20010904/DTD/svg10.dtd">
<svg version="1.0" xmlns="http://www.w3.org/2000/svg"
 width="260.000000pt" height="260.000000pt" viewBox="0 0 260.000000 260.000000"
 preserveAspectRatio="xMidYMid meet">
<metadata>
Created by potrace 1.11, written by Peter Selinger 2001-2013
</metadata>
<g transform="translate(0.000000,260.000000) scale(0.100000,-0.100000)"
fill="#000000" stroke="none">
<path d="M122 1870 c-4 -3 -8 -249 -7 -547 l0 -543 138 0 137 0 0 241 0 242
81 -109 c44 -60 85 -112 91 -115 20 -13 36 2 113 107 43 57 80 104 84 104 3 0
5 -106 5 -235 l-1 -235 137 0 137 0 -1 470 c-1 259 1 470 4 470 3 0 79 -197
169 -438 91 -240 173 -456 183 -480 l18 -43 57 3 57 3 19 50 c11 28 31 84 47
125 107 292 244 656 249 662 6 6 100 12 164 9 l27 -1 0 -415 0 -415 135 0 135
0 0 415 0 415 68 1 c37 1 84 0 105 -1 l37 -2 0 131 0 131 -434 -1 c-320 0
-437 -4 -444 -12 -25 -34 -143 -439 -158 -541 l-7 -50 -23 111 c-26 129 -140
482 -157 488 -7 2 -88 5 -181 7 l-169 3 -180 -234 -180 -234 -18 24 c-10 13
-91 118 -181 234 l-163 210 -43 0 c-24 0 -46 -2 -50 -5z"/>
</g>
</svg>
