<?xml version="1.0" standalone="no"?>
<!DOCTYPE svg PUBLIC "-//W3C//DTD SVG 20010904//EN"
 "http://www.w3.org/TR/2001/REC-SVG-20010904/DTD/svg10.dtd">
<svg version="1.0" xmlns="http://www.w3.org/2000/svg"
 width="260.000000pt" height="260.000000pt" viewBox="0 0 260.000000 260.000000"
 preserveAspectRatio="xMidYMid meet">
<metadata>
Created by potrace 1.11, written by Peter Selinger 2001-2013
</metadata>
<g transform="translate(0.000000,260.000000) scale(0.100000,-0.100000)"
fill="#000000" stroke="none">
<path d="M1847 1343 c-114 -296 -207 -544 -207 -551 0 -10 32 -12 141 -10
l141 3 23 60 22 60 155 3 154 2 23 -65 23 -65 139 0 c108 0 139 3 139 13 0 7
-92 254 -203 548 l-204 534 -70 3 -69 3 -207 -538z m342 -175 l11 -28 -76 0
c-74 0 -76 1 -70 23 4 12 18 67 32 122 14 55 28 107 31 115 2 8 17 -34 33 -95
15 -60 33 -122 39 -137z"/>
<path d="M60 1325 l0 -545 135 0 135 0 0 242 0 242 83 -112 c57 -77 88 -111
102 -112 15 0 44 31 100 107 l80 107 3 -237 2 -237 140 0 140 0 2 513 3 513
196 -520 197 -521 58 0 57 0 199 530 c109 292 201 540 204 553 l6 23 -148 -3
-148 -3 -58 -175 c-32 -96 -70 -230 -85 -297 l-27 -123 -17 83 c-24 118 -51
213 -107 372 l-50 140 -193 3 -194 2 -169 -220 c-93 -121 -174 -224 -181 -230
-9 -8 -58 49 -190 220 l-177 230 -49 0 -49 0 0 -545z"/>
</g>
</svg>
