<?xml version="1.0" standalone="no"?>
<!DOCTYPE svg PUBLIC "-//W3C//DTD SVG 20010904//EN"
 "http://www.w3.org/TR/2001/REC-SVG-20010904/DTD/svg10.dtd">
<svg version="1.0" xmlns="http://www.w3.org/2000/svg"
 width="16.000000pt" height="16.000000pt" viewBox="0 0 16.000000 16.000000"
 preserveAspectRatio="xMidYMid meet">
<metadata>
Created by potrace 1.11, written by Peter Selinger 2001-2013
</metadata>
<g transform="translate(0.000000,16.000000) scale(0.006154,-0.006154)"
fill="#000000" stroke="none">
<path d="M2074 1882 c-17 -2 -42 -58 -154 -350 -73 -191 -138 -360 -145 -377
-7 -16 -30 -75 -50 -130 -21 -55 -43 -113 -50 -130 -52 -126 -61 -116 107
-113 l142 3 19 55 c10 30 22 59 27 64 7 7 127 10 276 7 28 -1 32 -5 53 -66
l23 -65 139 0 c110 0 139 3 139 13 0 8 -20 65 -44 128 -23 63 -114 301 -201
529 -86 228 -160 420 -164 425 -6 9 -72 13 -117 7z m105 -684 c11 -32 19 -59
18 -59 -9 -6 -147 -3 -147 3 0 5 11 50 25 101 14 50 30 112 36 137 l12 45 18
-85 c10 -47 27 -111 38 -142z"/>
<path d="M85 1872 l-30 -3 2 -532 c1 -293 2 -538 2 -544 1 -10 35 -13 136 -13
l135 0 2 240 3 239 70 -96 c80 -109 102 -134 119 -127 6 3 47 52 90 109 43 58
82 105 85 105 3 0 6 -105 6 -232 l0 -233 135 -3 135 -3 0 520 c0 286 3 517 6
513 3 -4 34 -83 69 -177 76 -202 77 -208 169 -450 39 -104 76 -199 81 -210 5
-11 24 -63 43 -115 l35 -95 61 -2 c39 -1 61 3 61 10 0 10 130 367 150 412 14
31 250 668 250 675 0 3 -66 5 -147 5 l-147 0 -53 -160 c-53 -159 -99 -330
-106 -393 -4 -38 -17 -55 -17 -23 0 45 -60 270 -112 421 l-54 155 -140 2 c-76
1 -163 2 -193 3 -47 2 -57 -1 -72 -22 -84 -113 -336 -432 -344 -434 -5 -2 -23
16 -38 39 -15 23 -94 127 -175 231 -99 128 -154 190 -167 190 -11 1 -33 0 -50
-2z"/>
</g>
</svg>
